<svg width="800" height="800" viewBox="0 0 800 800" fill="none" xmlns="http://www.w3.org/2000/svg">
<path d="M763.635 363.637L124.152 363.637L243.895 243.894C258.096 229.695 258.096 206.67 243.895 192.468C236.794 185.37 227.487 181.819 218.181 181.819C208.874 181.819 199.567 185.37 192.469 192.471L10.6509 374.289C-3.5503 388.488 -3.5503 411.513 10.6509 425.715L192.469 607.533C206.668 621.732 229.693 621.732 243.895 607.533C258.096 593.334 258.096 570.308 243.895 556.107L124.152 436.364L763.635 436.364C783.718 436.364 799.999 420.083 799.999 400.001C799.999 379.918 783.718 363.637 763.635 363.637Z" fill="white"/>
</svg>
